{"title":"Karmin - Acapella [Music Video] 720p [Sbyky]","uid":9421669,"size":39387232,"categoryP":"video","categoryS":"music_videos","magnet":"?xt=urn:btih:508c9feabc0a3e27f7add38a6f23cf5e3cbe9cd1&amp;dn=Karmin+-+Acapella+%5BMusic+Video%5D+720p+%5BSbyky%5D&amp;tr=udp%3A%2F%2Ftracker.openbittorrent.com%3A80&amp;tr=udp%3A%2F%2Fopen.demonii.com%3A1337&amp;tr=udp%3A%2F%2Ftracker.coppersurfer.tk%3A6969&amp;tr=udp%3A%2F%2Fexodus.desync.com%3A6969","seeders":1,"leechers":3,"uploader":"Sbyky","files":1,"time":1388602236,"description":"\n\nGeneral\nComplete name                            : Karmin - Acapella [Music Video] 720p [Sbyky].MP4\nFormat                                   : MPEG-4\nFormat profile                           : Base Media / Version 2\nCodec ID                                 : mp42\nFile size                                : 37.6 MiB\nDuration                                 : 3mn 33s\nOverall bit rate mode                    : Variable\nOverall bit rate                         : 1 476 Kbps\nEncoded date                             : UTC 2013-11-12 11:51:41\nTagged date                              : UTC 2013-11-12 11:51:41\n\nVideo\nID                                       : 1\nFormat                                   : AVC\nFormat/Info                              : Advanced Video Codec\nFormat profile                           : &lt;a class=&quot;__cf_email__&quot; href=&quot;/cdn-cgi/l/email-protection&quot; data-cfemail=&quot;8ec6e7e9e6cec2bda0bf&quot;&gt;[email&amp;#160;protected]&lt;/a&gt;&lt;script cf-hash='f9e31' type=&quot;text/javascript&quot;&gt;\n/* &lt;![CDATA[ */!function(){try{var t=&quot;currentScript&quot;in document?document.currentScript:function(){for(var t=document.getElementsByTagName(&quot;script&quot;),e=t.length;e--;)if(t[e].getAttribute(&quot;cf-hash&quot;))return t[e]}();if(t&amp;&amp;t.previousSibling){var e,r,n,i,c=t.previousSibling,a=c.getAttribute(&quot;data-cfemail&quot;);if(a){for(e=&quot;&quot;,r=parseInt(a.substr(0,2),16),n=2;a.length-n;n+=2)i=parseInt(a.substr(n,2),16)^r,e+=String.fromCharCode(i);e=document.createTextNode(e),c.parentNode.replaceChild(e,c)}}}catch(u){}}();/* ]]&gt; */&lt;/script&gt;\nFormat settings, CABAC                   : Yes\nFormat settings, ReFrames                : 1 frame\nCodec ID                                 : avc1\nCodec ID/Info                            : Advanced Video Coding\nDuration                                 : 3mn 33s\nBit rate                                 : 1 282 Kbps\nMaximum bit rate                         : 3 957 Kbps\nWidth                                    : 1 280 pixels\nHeight                                   : 720 pixels\nDisplay aspect ratio                     : 16:9\nFrame rate mode                          : Constant\nFrame rate                               : 23.976 fps\nColor space                              : YUV\nChroma subsampling                       : 4:2:0\nBit depth                                : 8 bits\nScan type                                : Progressive\nBits/(Pixel*Frame)                       : 0.058\nStream size                              : 32.6 MiB (87%)\nTagged date                              : UTC 2013-11-12 11:51:47\n\nAudio\nID                                       : 2\nFormat                                   : AAC\nFormat/Info                              : Advanced Audio Codec\nFormat profile                           : LC\nCodec ID                                 : 40\nDuration                                 : 3mn 33s\nBit rate mode                            : Variable\nBit rate                                 : 192 Kbps\nMaximum bit rate                         : 202 Kbps\nChannel(s)                               : 2 channels\nChannel positions                        : Front: L R\nSampling rate                            : 44.1 KHz\nCompression mode                         : Lossy\nStream size                              : 4.89 MiB (13%)\nTitle                                    : IsoMedia File Produced by Google, 5-11-2011\nEncoded date                             : UTC 2013-11-12 11:51:44\nTagged date                              : UTC 2013-11-12 11:51:47\n\nShared By Sbyky\n","torrent":{"xt":"urn:btih:508c9feabc0a3e27f7add38a6f23cf5e3cbe9cd1","amp;dn":"Karmin+-+Acapella+%5BMusic+Video%5D+720p+%5BSbyky%5D","amp;tr":["udp%3A%2F%2Ftracker.openbittorrent.com%3A80","udp%3A%2F%2Fopen.demonii.com%3A1337","udp%3A%2F%2Ftracker.coppersurfer.tk%3A6969","udp%3A%2F%2Fexodus.desync.com%3A6969"],"infoHash":"508c9feabc0a3e27f7add38a6f23cf5e3cbe9cd1","infoHashBuffer":{"type":"Buffer","data":[80,140,159,234,188,10,62,39,247,173,211,138,111,35,207,94,60,190,156,209]},"announce":[],"urlList":[]}}